<svg id="Layer_1" data-name="Layer 1" xmlns="http://www.w3.org/2000/svg" viewBox="0 0 188.19 125.11"><defs><style>.cls-1,.cls-4{fill:#fff;}.cls-2{fill:#3f3f41;}.cls-3{fill:#719267;}.cls-4{opacity:0.42;}</style></defs><rect class="cls-1" x="0.27" y="103.32" width="25.87" height="16"/><rect class="cls-1" x="162.66" y="106.38" width="25.53" height="14.3"/><rect class="cls-1" x="48.95" y="100.94" width="86.81" height="24.17"/><path class="cls-2" d="M153.85,61.74c-.22,34-27.69,61.39-61.42,61.25-34.15-.14-61.22-28-60.94-62.81C31.75,27.65,59.75.09,92.36.26,126.62.44,154.07,27.89,153.85,61.74ZM37.29,61.57c0,30.49,25,55.73,55.29,55.75,30.49,0,55.54-25.18,55.56-55.87,0-30.33-25.21-55.59-55.49-55.56S37.3,31.07,37.29,61.57Z" transform="translate(-0.02 -0.26)"/><path class="cls-2" d="M5.8,26.83h5.69c0-6.57-.15-13,.08-19.4C11.66,4.89,9.87.49,14.45.61c4.36.11,2.65,4.46,2.75,7,.24,6.28.07,12.59.07,19.11H23c0-6.92-.06-13.69,0-20.45C23,3.94,22,.42,25.92.46c3.63,0,2.68,3.43,2.69,5.69.08,10.09,0,20.19.05,30.28,0,6.94-2.79,12-9.35,14.58-2.17.85-2.08,2.3-2.08,4,0,20.55,0,41.11,0,61.66,0,2.33,1.06,5.91-2.79,6s-2.86-3.54-2.87-5.86q-.1-30.64,0-61.3c0-2.41-.42-3.79-3-4.89C3.06,48.28.14,43.72.08,37.7,0,26.63.06,15.56,0,4.5c0-2.14.3-4.14,3-4S5.82,2.61,5.81,4.69C5.79,12,5.8,19.24,5.8,26.83ZM6,33c-.47,4.86-.55,9.27,4,11.91a8.14,8.14,0,0,0,9.55-.55c3.82-2.92,3.7-7,3-11.36Z" transform="translate(-0.02 -0.26)"/><path class="cls-2" d="M173.81,70.13c-2.42,0-4.34,0-6.26,0-4.67,0-5.13-.47-5.14-5.29q0-15,0-29.92c0-6.69-.15-13.38.07-20.07.27-7.92,5.32-13.63,12.34-14.42,3.64-.41,4.77.47,4.78,4q0,57.11,0,114.22c0,2.12-.26,4.14-2.93,4.09s-2.85-2.12-2.85-4.2q0-21.9,0-43.79Zm-.27-5.92V6.71c-4.19,2.05-5.35,5.22-5.35,9.11q0,22.79,0,45.56a22.67,22.67,0,0,0,.34,2.83Z" transform="translate(-0.02 -0.26)"/><path class="cls-3" d="M37.29,61.57c0-30.5,25-55.65,55.36-55.68s55.5,25.23,55.49,55.56c0,30.69-25.07,55.89-55.56,55.87C62.31,117.3,37.27,92.06,37.29,61.57Zm55.63-46c-2.42.18-4.88.17-7.27.56a45.94,45.94,0,0,0,5.84,91.31c18.57.42,32.83-7.86,41.5-24.16s7.41-32.57-2.72-48.07c-1.2-1.83-2.7-3.61-5-2s-.9,3.58.31,5.35a39.91,39.91,0,0,1,6.53,30.55c-3.64,21-24.13,35.49-45.51,32.23C65.43,98.16,49.85,77.72,52.76,57,57.07,26.26,90,11.51,115.82,28.7c1.73,1.15,3.59,2.32,5.08.2s-.13-3.78-2-5A45.24,45.24,0,0,0,92.92,15.58Z" transform="translate(-0.02 -0.26)"/><path class="cls-4" d="M6,33H22.6c.67,4.39.79,8.44-3,11.36a8.14,8.14,0,0,1-9.55.55C5.45,42.29,5.53,37.88,6,33Z" transform="translate(-0.02 -0.26)"/><path class="cls-4" d="M173.54,64.21h-5a22.67,22.67,0,0,1-.34-2.83q0-22.79,0-45.56c0-3.89,1.16-7.06,5.35-9.11Z" transform="translate(-0.02 -0.26)"/><path class="cls-2" d="M92.92,15.58a45.24,45.24,0,0,1,26,8.28c1.82,1.26,3.54,2.78,2,5s-3.35,1-5.08-.2C90,11.51,57.07,26.26,52.76,57,49.85,77.72,65.43,98.16,86.6,101.38c21.38,3.26,41.87-11.27,45.51-32.23a39.91,39.91,0,0,0-6.53-30.55c-1.21-1.77-2.68-3.67-.31-5.35s3.8.14,5,2C140.4,50.72,141.62,67,133,83.29s-22.93,24.58-41.5,24.16a45.94,45.94,0,0,1-5.84-91.31C88,15.75,90.5,15.76,92.92,15.58Z" transform="translate(-0.02 -0.26)"/></svg>