<?xml version="1.0" encoding="utf-8"?>
<!-- Generator: Adobe Illustrator 25.2.0, SVG Export Plug-In . SVG Version: 6.00 Build 0)  -->
<svg version="1.1" id="Layer_1" xmlns="http://www.w3.org/2000/svg" xmlns:xlink="http://www.w3.org/1999/xlink" x="0px" y="0px"
	 viewBox="0 0 344 195.9" style="enable-background:new 0 0 344 195.9;" xml:space="preserve">
<style type="text/css">
	.st0{fill:#3F3F41;}
	.st1{fill:none;stroke:#3F3F41;stroke-width:2;stroke-miterlimit:10;}
	.st2{fill:#FFFFFF;}
	.st3{fill:#566A5F;}
	.st4{opacity:0.42;fill:#CDA678;}
	.st5{fill:#719267;}
</style>
<g>
	<path class="st0" d="M56,149H43.5v-7.4h4.4v3.9h12.8v3.5l-8.4,19.9h-4.8L56,149z"/>
	<path class="st0" d="M86,160.8c0,5.5-2.5,8.1-7.9,8.1h-3.9v-3.5h3c3.1,0,4.2-1.4,4.2-4.7V149H65.7v-3.5H86V160.8z M70.4,155.3v21.4
		h-4.6v-21.4H70.4z"/>
	<path class="st0" d="M110,149h-3.1v19.9h-4.6V149H90.5v-3.5H110V149z"/>
	<path class="st0" d="M127.9,158.8V149h-3.2v-3.5h7.8v13.3H127.9z"/>
	<path class="st0" d="M149.1,149h-12.5v-7.4h4.4v3.9h12.8v3.5l-8.4,19.9h-4.8L149.1,149z"/>
	<path class="st0" d="M178.1,145.5v12.6c0,5.7-2.6,8.3-8.2,9.8l-11.5,3l-0.8-3.4l6-1.6l-2.7-16.8h-3.4v-3.5h6.1
		c0.7,0,1.2,0.4,1.4,1.4l2.8,17.8l1.6-0.5c3.1-0.8,4.1-2.6,4.1-6.2v-9H170v-3.5H178.1z"/>
	<path class="st0" d="M204.9,154.7v14.2h-11.4v-3.5h6.9v-11.2c0-3.7-1-5.4-3.4-5.4c-1.8,0-2.9,0.8-4.1,4.1l-5.7,16h-4.6l4-11.3
		l-4.2-12.1h4.5l2.2,6.9l0.3-0.9c1.9-4.8,3.9-6.2,7.8-6.2C202.5,145.3,204.9,148,204.9,154.7z"/>
	<path class="st0" d="M243.5,152.3v16.6h-20.2V149h-2.4v-3.5h15.9C241.4,145.5,243.5,147.5,243.5,152.3z M239,153.1
		c0-2.8-1.1-4.1-3.5-4.1h-7.7v16.4H239V153.1z"/>
	<path class="st0" d="M251.4,158.8V149h-3.2v-3.5h7.8v13.3H251.4z"/>
	<path class="st0" d="M272.6,149h-12.5v-7.4h4.4v3.9h12.8v3.5l-8.4,19.9h-4.8L272.6,149z"/>
	<path class="st0" d="M298.9,159.9c0,6.2-2.6,9-8.9,9h-8.9v-3.5h7.3c4.1,0,5.7-2,5.7-6.6V149h-13.1v-3.5h17.8V159.9z"/>
</g>
<g>
	<path class="st0" d="M-580.8,157.8c0,5.5-2.5,8.1-7.9,8.1h-3.9v-3.5h3c3.1,0,4.2-1.4,4.2-4.7V146h-15.8v-3.5h20.3V157.8z
		 M-596.4,152.3v21.4h-4.6v-21.4H-596.4z"/>
	<path class="st0" d="M-572.4,165.9V146h-3.4v-3.5h8v23.4H-572.4z"/>
	<path class="st0" d="M-542.2,162.4v3.5h-20.3v-3.5h12.7V150c0-2.9-1.1-4-4-4h-8.7v-3.5h9.6c5.6,0,7.6,1.9,7.6,7.2v12.7H-542.2z"/>
	<path class="st0" d="M-517,151.7v14.2h-11.4v-3.5h6.9v-11.2c0-3.7-1-5.4-3.4-5.4c-1.8,0-2.9,0.8-4.1,4.1l-5.7,16h-4.6l4-11.3
		l-4.2-12.1h4.5l2.2,6.9l0.3-0.9c1.9-4.8,3.9-6.2,7.8-6.2C-519.5,142.3-517,145-517,151.7z"/>
	<path class="st0" d="M-491.7,162.4v3.5h-20.3v-3.5h12.7V150c0-2.9-1.1-4-4-4h-8.7v-3.5h9.6c5.6,0,7.6,1.9,7.6,7.2v12.7H-491.7z"/>
	<path class="st0" d="M-458.2,142.5v11.1c0,5.7-2.9,6.9-5.7,6.9c-1.1,0-2-0.2-2.7-0.5l6.3,13.8h-4.5l-14.2-31.2h4.5l5.3,11.7v0
		c1.1,2.1,2,3.1,3.9,3.1c1.9,0,2.7-1.4,2.7-4.1v-7.1h-4.3v-3.4H-458.2z"/>
	<path class="st0" d="M-433.1,142.5v12.6c0,5.7-2.6,8.3-8.2,9.8l-11.5,3l-0.8-3.4l6-1.6l-2.7-16.8h-3.4v-3.5h6.1
		c0.7,0,1.2,0.4,1.4,1.4l2.8,17.8l1.6-0.5c3.1-0.8,4.1-2.6,4.1-6.2v-9h-3.5v-3.5H-433.1z"/>
	<path class="st0" d="M-406.2,151.7v14.2h-11.4v-3.5h6.9v-11.2c0-3.7-1-5.4-3.4-5.4c-1.8,0-2.9,0.8-4.1,4.1l-5.7,16h-4.6l4-11.3
		l-4.2-12.1h4.5l2.2,6.9l0.3-0.9c1.9-4.8,3.9-6.2,7.8-6.2C-408.7,142.3-406.2,145-406.2,151.7z"/>
	<path class="st0" d="M-367.6,149.3v16.6h-20.2V146h-2.4v-3.5h15.9C-369.7,142.5-367.6,144.5-367.6,149.3z M-372.1,150.1
		c0-2.8-1.1-4.1-3.5-4.1h-7.7v16.4h11.2V150.1z"/>
	<path class="st0" d="M-359.7,155.8V146h-3.2v-3.5h7.8v13.3H-359.7z"/>
	<path class="st0" d="M-338.5,146H-351v-7.4h4.4v3.9h12.8v3.5l-8.4,19.9h-4.8L-338.5,146z"/>
	<path class="st0" d="M-312.2,156.9c0,6.2-2.6,9-8.9,9h-8.9v-3.5h7.3c4.1,0,5.7-2,5.7-6.6V146H-330v-3.5h17.8V156.9z"/>
</g>
<g>
	<path class="st0" d="M-977,154.5c0-3.8-1.5-5.4-4.9-5.4h-7.3v-3.5h8.1c6,0,8.7,2.5,8.7,8.3V169h-4.6V154.5z"/>
	<path class="st0" d="M-949.5,160c0,6.2-2.6,9-8.9,9h-8.9v-3.5h7.3c4.1,0,5.7-2,5.7-6.6v-9.8h-13.1v-3.5h17.8V160z"/>
	<path class="st0" d="M-941.1,169v-19.9h-3.4v-3.5h8V169H-941.1z"/>
	<path class="st0" d="M-909,145.6v14.1c0,6.9-3.1,9.5-10,9.5c-6.9,0-10-2.6-10-9.5v-10.6h-2.4v-3.5H-909z M-913.6,149.1h-10.9v10.5
		c0,4.3,1.7,6,5.5,6s5.5-1.8,5.5-6V149.1z"/>
	<path class="st0" d="M-871.8,169h-4.6v-19.9h-15.4v-3.5h20V169z M-887.1,154.8V169h-4.6v-14.2H-887.1z"/>
	<path class="st0" d="M-856.6,151.3V169h-10.2v-3.5h5.7v-13.7c0-1.9-0.7-2.7-2.3-2.7h-2.4v-3.5l4.4,0
		C-858,145.6-856.6,147.2-856.6,151.3z"/>
	<path class="st0" d="M-830.2,160.9c0,5.5-2.5,8.1-7.9,8.1h-3.9v-3.5h3c3.1,0,4.2-1.4,4.2-4.7v-11.7h-15.8v-3.5h20.3V160.9z
		 M-845.8,155.4v21.4h-4.6v-21.4H-845.8z"/>
	<path class="st0" d="M-803.1,154.8V169h-11.4v-3.5h6.9v-11.2c0-3.7-1-5.4-3.4-5.4c-1.8,0-2.9,0.8-4.1,4.1l-5.7,16h-4.6l4-11.3
		l-4.2-12.1h4.5l2.2,6.9l0.3-0.9c1.9-4.8,3.9-6.2,7.8-6.2C-805.6,145.4-803.1,148.1-803.1,154.8z"/>
	<path class="st0" d="M-764.5,152.4V169h-20.2v-19.9h-2.4v-3.5h15.9C-766.6,145.6-764.5,147.6-764.5,152.4z M-769,153.1
		c0-2.8-1.1-4.1-3.5-4.1h-7.7v16.4h11.2V153.1z"/>
	<path class="st0" d="M-756.6,158.9v-9.8h-3.2v-3.5h7.8v13.3H-756.6z"/>
	<path class="st0" d="M-735.4,149.1h-12.5v-7.4h4.4v3.9h12.8v3.5l-8.4,19.9h-4.8L-735.4,149.1z"/>
	<path class="st0" d="M-709.1,160c0,6.2-2.6,9-8.9,9h-8.9v-3.5h7.3c4.1,0,5.7-2,5.7-6.6v-9.8h-13.1v-3.5h17.8V160z"/>
</g>
<path class="st1" d="M-689.5,192.1H-1007c-6.6,0-12-5.4-12-12v-57.2c0-6.6,5.4-12,12-12h317.5c6.6,0,12,5.4,12,12v57.2
	C-677.5,186.7-682.9,192.1-689.5,192.1z"/>
<path class="st1" d="M-297.9,192.1h-317.5c-6.6,0-12-5.4-12-12v-57.2c0-6.6,5.4-12,12-12h317.5c6.6,0,12,5.4,12,12v57.2
	C-285.9,186.7-291.3,192.1-297.9,192.1z"/>
<path class="st1" d="M330.9,195.1H13.3c-6.6,0-12-5.4-12-12v-57.2c0-6.6,5.4-12,12-12h317.5c6.6,0,12,5.4,12,12v57.2
	C342.9,189.7,337.5,195.1,330.9,195.1z"/>
<g>
	<rect x="78.3" y="103.8" class="st2" width="25.9" height="16"/>
	<rect x="240.6" y="106.9" class="st2" width="25.5" height="14.3"/>
	<rect x="126.9" y="101.5" class="st2" width="86.8" height="24.2"/>
	<g>
		<path class="st0" d="M231.8,62c-0.2,34-27.7,61.4-61.4,61.2c-34.1-0.1-61.2-28-60.9-62.8c0.3-32.5,28.3-60.1,60.9-59.9
			C204.6,0.7,232,28.2,231.8,62z M115.3,61.8c0,30.5,25,55.7,55.3,55.7c30.5,0,55.5-25.2,55.6-55.9c0-30.3-25.2-55.6-55.5-55.6
			C140.3,6.2,115.3,31.3,115.3,61.8z"/>
		<path class="st0" d="M83.8,27.1c2.1,0,3.7,0,5.7,0c0-6.6-0.2-13,0.1-19.4c0.1-2.5-1.7-6.9,2.9-6.8c4.4,0.1,2.6,4.5,2.7,7
			c0.2,6.3,0.1,12.6,0.1,19.1c2,0,3.6,0,5.7,0c0-6.9-0.1-13.7,0-20.5c0-2.4-1-5.9,2.9-5.8c3.6,0,2.7,3.4,2.7,5.7
			c0.1,10.1,0,20.2,0,30.3c0,6.9-2.8,12-9.3,14.6c-2.2,0.8-2.1,2.3-2.1,4c0,20.6,0,41.1,0,61.7c0,2.3,1.1,5.9-2.8,6
			c-4,0.1-2.9-3.5-2.9-5.9c-0.1-20.4-0.1-40.9,0-61.3c0-2.4-0.4-3.8-3-4.9C81,48.6,78.1,44,78,38c-0.1-11.1,0-22.1,0-33.2
			c0-2.1,0.3-4.1,3-4c2.6,0.1,2.8,2.2,2.8,4.2C83.8,12.2,83.8,19.5,83.8,27.1z M84,33.3c-0.5,4.9-0.6,9.3,4,11.9
			c3.2,1.9,6.6,1.7,9.5-0.5c3.8-2.9,3.7-7,3-11.4C95,33.3,89.6,33.3,84,33.3z"/>
		<path class="st0" d="M251.8,70.4c-2.4,0-4.3,0-6.3,0c-4.7,0-5.1-0.5-5.1-5.3c0-10,0-19.9,0-29.9c0-6.7-0.2-13.4,0.1-20.1
			c0.3-7.9,5.3-13.6,12.3-14.4c3.6-0.4,4.8,0.5,4.8,4c0,38.1,0,76.1,0,114.2c0,2.1-0.3,4.1-2.9,4.1c-2.6-0.1-2.9-2.1-2.9-4.2
			c0-14.6,0-29.2,0-43.8C251.8,73.7,251.8,72.4,251.8,70.4z M251.5,64.5c0-19.1,0-38.1,0-57.5c-4.2,2.1-5.3,5.2-5.4,9.1
			c0,15.2,0,30.4,0,45.6c0,0.9,0.2,1.8,0.3,2.8C248.3,64.5,249.8,64.5,251.5,64.5z"/>
		<path class="st3" d="M115.3,61.8c0-30.5,25-55.6,55.4-55.7c30.3,0,55.5,25.2,55.5,55.6c0,30.7-25.1,55.9-55.6,55.9
			C140.3,117.6,115.2,92.3,115.3,61.8z M170.9,15.8c-2.4,0.2-4.9,0.2-7.3,0.6C139.9,20.3,123.4,41,124.9,65
			c1.4,23.5,20.7,42.2,44.6,42.7c18.6,0.4,32.8-7.9,41.5-24.2c8.6-16.2,7.4-32.6-2.7-48.1c-1.2-1.8-2.7-3.6-5-2
			c-2.4,1.7-0.9,3.6,0.3,5.3c6.4,9.3,8.4,19.5,6.5,30.6c-3.6,21-24.1,35.5-45.5,32.2c-21.2-3.2-36.7-23.7-33.8-44.4
			c4.3-30.7,37.2-45.5,63.1-28.3c1.7,1.1,3.6,2.3,5.1,0.2c1.6-2.3-0.1-3.8-2-5C189.1,18.7,180.4,15.9,170.9,15.8z"/>
		<path class="st4" d="M84,33.3c5.7,0,11.1,0,16.6,0c0.7,4.4,0.8,8.4-3,11.4c-3,2.3-6.3,2.4-9.5,0.5C83.4,42.6,83.5,38.1,84,33.3z"
			/>
		<path class="st4" d="M251.5,64.5c-1.7,0-3.2,0-5,0c-0.1-1-0.3-1.9-0.3-2.8c0-15.2,0-30.4,0-45.6c0-3.9,1.2-7.1,5.4-9.1
			C251.5,26.4,251.5,45.3,251.5,64.5z"/>
		<path class="st0" d="M170.9,15.8c9.5,0.1,18.2,2.9,26,8.3c1.8,1.3,3.5,2.8,2,5c-1.5,2.1-3.4,0.9-5.1-0.2
			c-25.9-17.2-58.8-2.4-63.1,28.3c-2.9,20.7,12.7,41.2,33.8,44.4c21.4,3.3,41.9-11.3,45.5-32.2c1.9-11.1-0.1-21.3-6.5-30.6
			c-1.2-1.8-2.7-3.7-0.3-5.3c2.3-1.6,3.8,0.1,5,2c10.1,15.5,11.4,31.8,2.7,48.1c-8.7,16.3-22.9,24.6-41.5,24.2
			c-23.9-0.5-43.2-19.2-44.6-42.7c-1.5-24,15.1-44.7,38.8-48.6C166,16,168.5,16,170.9,15.8z"/>
	</g>
</g>
<g>
	<rect x="-550.5" y="100.8" class="st2" width="25.9" height="16"/>
	<rect x="-388.1" y="103.9" class="st2" width="25.5" height="14.3"/>
	<rect x="-501.8" y="98.5" class="st2" width="86.8" height="24.2"/>
	<g>
		<path class="st0" d="M-396.9,59c-0.2,34-27.7,61.4-61.4,61.2c-34.1-0.1-61.2-28-60.9-62.8C-519,24.9-491-2.6-458.4-2.5
			C-424.2-2.3-396.7,25.2-396.9,59z M-513.5,58.8c0,30.5,25,55.7,55.3,55.7c30.5,0,55.5-25.2,55.6-55.9c0-30.3-25.2-55.6-55.5-55.6
			C-488.5,3.2-513.5,28.3-513.5,58.8z"/>
		<path class="st0" d="M-545,24.1c2.1,0,3.7,0,5.7,0c0-6.6-0.2-13,0.1-19.4c0.1-2.5-1.7-6.9,2.9-6.8c4.4,0.1,2.6,4.5,2.7,7
			c0.2,6.3,0.1,12.6,0.1,19.1c2,0,3.6,0,5.7,0c0-6.9-0.1-13.7,0-20.5c0-2.4-1-5.9,2.9-5.8c3.6,0,2.7,3.4,2.7,5.7
			c0.1,10.1,0,20.2,0,30.3c0,6.9-2.8,12-9.3,14.6c-2.2,0.8-2.1,2.3-2.1,4c0,20.6,0,41.1,0,61.7c0,2.3,1.1,5.9-2.8,6
			c-4,0.1-2.9-3.5-2.9-5.9c-0.1-20.4-0.1-40.9,0-61.3c0-2.4-0.4-3.8-3-4.9c-5.5-2.3-8.4-6.9-8.5-12.9c-0.1-11.1,0-22.1,0-33.2
			c0-2.1,0.3-4.1,3-4c2.6,0.1,2.8,2.2,2.8,4.2C-545,9.2-545,16.5-545,24.1z M-544.8,30.3c-0.5,4.9-0.6,9.3,4,11.9
			c3.2,1.9,6.6,1.7,9.5-0.5c3.8-2.9,3.7-7,3-11.4C-533.7,30.3-539.1,30.3-544.8,30.3z"/>
		<path class="st0" d="M-377,67.4c-2.4,0-4.3,0-6.3,0c-4.7,0-5.1-0.5-5.1-5.3c0-10,0-19.9,0-29.9c0-6.7-0.2-13.4,0.1-20.1
			C-388,4.2-383-1.5-376-2.3c3.6-0.4,4.8,0.5,4.8,4c0,38.1,0,76.1,0,114.2c0,2.1-0.3,4.1-2.9,4.1c-2.6-0.1-2.9-2.1-2.9-4.2
			c0-14.6,0-29.2,0-43.8C-377,70.7-377,69.4-377,67.4z M-377.2,61.5c0-19.1,0-38.1,0-57.5c-4.2,2.1-5.3,5.2-5.4,9.1
			c0,15.2,0,30.4,0,45.6c0,0.9,0.2,1.8,0.3,2.8C-380.5,61.5-378.9,61.5-377.2,61.5z"/>
		<path class="st5" d="M-513.5,58.8c0-30.5,25-55.6,55.4-55.7c30.3,0,55.5,25.2,55.5,55.6c0,30.7-25.1,55.9-55.6,55.9
			C-488.5,114.6-513.5,89.3-513.5,58.8z M-457.9,12.8c-2.4,0.2-4.9,0.2-7.3,0.6c-23.7,3.8-40.2,24.6-38.8,48.6
			c1.4,23.5,20.7,42.2,44.6,42.7c18.6,0.4,32.8-7.9,41.5-24.2c8.6-16.2,7.4-32.6-2.7-48.1c-1.2-1.8-2.7-3.6-5-2
			c-2.4,1.7-0.9,3.6,0.3,5.3c6.4,9.3,8.4,19.5,6.5,30.6c-3.6,21-24.1,35.5-45.5,32.2c-21.2-3.2-36.7-23.7-33.8-44.4
			c4.3-30.7,37.2-45.5,63.1-28.3c1.7,1.1,3.6,2.3,5.1,0.2c1.6-2.3-0.1-3.8-2-5C-439.7,15.7-448.3,12.9-457.9,12.8z"/>
		<path class="st3" d="M-544.8,30.3c5.7,0,11.1,0,16.6,0c0.7,4.4,0.8,8.4-3,11.4c-3,2.3-6.3,2.4-9.5,0.5
			C-545.3,39.6-545.2,35.1-544.8,30.3z"/>
		<path class="st3" d="M-377.2,61.5c-1.7,0-3.2,0-5,0c-0.1-1-0.3-1.9-0.3-2.8c0-15.2,0-30.4,0-45.6c0-3.9,1.2-7.1,5.4-9.1
			C-377.2,23.4-377.2,42.3-377.2,61.5z"/>
		<path class="st0" d="M-457.9,12.8c9.5,0.1,18.2,2.9,26,8.3c1.8,1.3,3.5,2.8,2,5c-1.5,2.1-3.4,0.9-5.1-0.2
			c-25.9-17.2-58.8-2.4-63.1,28.3c-2.9,20.7,12.7,41.2,33.8,44.4c21.4,3.3,41.9-11.3,45.5-32.2c1.9-11.1-0.1-21.3-6.5-30.6
			c-1.2-1.8-2.7-3.7-0.3-5.3c2.3-1.6,3.8,0.1,5,2c10.1,15.5,11.4,31.8,2.7,48.1c-8.7,16.3-22.9,24.6-41.5,24.2
			c-23.9-0.5-43.2-19.2-44.6-42.7c-1.5-24,15.1-44.7,38.8-48.6C-462.7,13-460.3,13-457.9,12.8z"/>
	</g>
</g>
<g>
	<rect x="-942.1" y="100.8" class="st2" width="25.9" height="16"/>
	<rect x="-779.7" y="103.9" class="st2" width="25.5" height="14.3"/>
	<rect x="-893.4" y="98.5" class="st2" width="86.8" height="24.2"/>
	<g>
		<path class="st0" d="M-788.5,59c-0.2,34-27.7,61.4-61.4,61.2c-34.1-0.1-61.2-28-60.9-62.8c0.3-32.5,28.3-60.1,60.9-59.9
			C-815.7-2.3-788.3,25.2-788.5,59z M-905.1,58.8c0,30.5,25,55.7,55.3,55.7c30.5,0,55.5-25.2,55.6-55.9c0-30.3-25.2-55.6-55.5-55.6
			C-880,3.2-905.1,28.3-905.1,58.8z"/>
		<path class="st0" d="M-936.5,24.1c2.1,0,3.7,0,5.7,0c0-6.6-0.2-13,0.1-19.4c0.1-2.5-1.7-6.9,2.9-6.8c4.4,0.1,2.6,4.5,2.7,7
			c0.2,6.3,0.1,12.6,0.1,19.1c2,0,3.6,0,5.7,0c0-6.9-0.1-13.7,0-20.5c0-2.4-1-5.9,2.9-5.8c3.6,0,2.7,3.4,2.7,5.7
			c0.1,10.1,0,20.2,0,30.3c0,6.9-2.8,12-9.3,14.6c-2.2,0.8-2.1,2.3-2.1,4c0,20.6,0,41.1,0,61.7c0,2.3,1.1,5.9-2.8,6
			c-4,0.1-2.9-3.5-2.9-5.9c-0.1-20.4-0.1-40.9,0-61.3c0-2.4-0.4-3.8-3-4.9c-5.5-2.3-8.4-6.9-8.5-12.9c-0.1-11.1,0-22.1,0-33.2
			c0-2.1,0.3-4.1,3-4c2.6,0.1,2.8,2.2,2.8,4.2C-936.6,9.2-936.5,16.5-936.5,24.1z M-936.3,30.3c-0.5,4.9-0.6,9.3,4,11.9
			c3.2,1.9,6.6,1.7,9.5-0.5c3.8-2.9,3.7-7,3-11.4C-925.3,30.3-930.7,30.3-936.3,30.3z"/>
		<path class="st0" d="M-768.5,67.4c-2.4,0-4.3,0-6.3,0c-4.7,0-5.1-0.5-5.1-5.3c0-10,0-19.9,0-29.9c0-6.7-0.2-13.4,0.1-20.1
			c0.3-7.9,5.3-13.6,12.3-14.4c3.6-0.4,4.8,0.5,4.8,4c0,38.1,0,76.1,0,114.2c0,2.1-0.3,4.1-2.9,4.1c-2.6-0.1-2.9-2.1-2.9-4.2
			c0-14.6,0-29.2,0-43.8C-768.5,70.7-768.5,69.4-768.5,67.4z M-768.8,61.5c0-19.1,0-38.1,0-57.5c-4.2,2.1-5.3,5.2-5.4,9.1
			c0,15.2,0,30.4,0,45.6c0,0.9,0.2,1.8,0.3,2.8C-772,61.5-770.5,61.5-768.8,61.5z"/>
		<path class="st4" d="M-905.1,58.8c0-30.5,25-55.6,55.4-55.7c30.3,0,55.5,25.2,55.5,55.6c0,30.7-25.1,55.9-55.6,55.9
			C-880,114.6-905.1,89.3-905.1,58.8z M-849.4,12.8c-2.4,0.2-4.9,0.2-7.3,0.6c-23.7,3.8-40.2,24.6-38.8,48.6
			c1.4,23.5,20.7,42.2,44.6,42.7c18.6,0.4,32.8-7.9,41.5-24.2c8.6-16.2,7.4-32.6-2.7-48.1c-1.2-1.8-2.7-3.6-5-2
			c-2.4,1.7-0.9,3.6,0.3,5.3c6.4,9.3,8.4,19.5,6.5,30.6c-3.6,21-24.1,35.5-45.5,32.2c-21.2-3.2-36.7-23.7-33.8-44.4
			c4.3-30.7,37.2-45.5,63.1-28.3c1.7,1.1,3.6,2.3,5.1,0.2c1.6-2.3-0.1-3.8-2-5C-831.2,15.7-839.9,12.9-849.4,12.8z"/>
		<path class="st5" d="M-936.3,30.3c5.7,0,11.1,0,16.6,0c0.7,4.4,0.8,8.4-3,11.4c-3,2.3-6.3,2.4-9.5,0.5
			C-936.9,39.6-936.8,35.1-936.3,30.3z"/>
		<path class="st5" d="M-768.8,61.5c-1.7,0-3.2,0-5,0c-0.1-1-0.3-1.9-0.3-2.8c0-15.2,0-30.4,0-45.6c0-3.9,1.2-7.1,5.4-9.1
			C-768.8,23.4-768.8,42.3-768.8,61.5z"/>
		<path class="st0" d="M-849.4,12.8c9.5,0.1,18.2,2.9,26,8.3c1.8,1.3,3.5,2.8,2,5c-1.5,2.1-3.4,0.9-5.1-0.2
			c-25.9-17.2-58.8-2.4-63.1,28.3c-2.9,20.7,12.7,41.2,33.8,44.4c21.4,3.3,41.9-11.3,45.5-32.2c1.9-11.1-0.1-21.3-6.5-30.6
			c-1.2-1.8-2.7-3.7-0.3-5.3c2.3-1.6,3.8,0.1,5,2c10.1,15.5,11.4,31.8,2.7,48.1c-8.7,16.3-22.9,24.6-41.5,24.2
			c-23.9-0.5-43.2-19.2-44.6-42.7c-1.5-24,15.1-44.7,38.8-48.6C-854.3,13-851.9,13-849.4,12.8z"/>
	</g>
</g>
</svg>
