<svg id="Layer_1" data-name="Layer 1" xmlns="http://www.w3.org/2000/svg" viewBox="0 0 146.46 122.55"><defs><style>.cls-1{fill:#556a5f;}.cls-2{fill:#719167;}.cls-3{fill:#3e3e40;}</style></defs><path class="cls-1" d="M76.08,120.06a1.44,1.44,0,0,1-.12-1.53c2.34-4.31,4.54-8.84,6.74-13.85,1-2.36,2-4.78,3-7.12l3-7.55c2-5.22,4-9.93,6.12-14.38,2.25-4.74,4.67-9.4,7.21-13.87,3.11-5.51,6.49-10.9,9.92-16.09A127.38,127.38,0,0,0,91.47,74c-1.18,2.24-2.34,4.59-3.52,7.19s-2.14,5-3.07,7.34l-5.59,14.77c-1.57,4.08-3.32,8.43-5.35,13.28a1.42,1.42,0,0,1-2.71-.35C69.59,104.37,67.33,74,81.87,47.64,100.08,14.61,138.34.27,138.72.13a1.41,1.41,0,0,1,1.8.8c3.49,8.72,13.6,39.73-2.87,72.72C119.77,109.48,84.42,119,77.52,120.59a1.63,1.63,0,0,1-.31,0A1.41,1.41,0,0,1,76.08,120.06Z" transform="translate(-0.58 -0.04)"/><path class="cls-2" d="M57.61,121.77c-9.18-3.82-31.91-15-44.8-36.33C-3.61,58.25,1.86,25.37,2.1,24a1.41,1.41,0,0,1,1.83-1.1c1.34.43,33,10.89,49.41,38.08h0c13.23,21.9,12.23,47.68,11.19,57.75A1.43,1.43,0,0,1,63.34,120a1.42,1.42,0,0,1-1.52-.83l-.39-.88c-.41-.91-.81-1.83-1.21-2.75l-5.17-12.18c-.87-1.94-1.81-4-2.82-6.06s-2.12-4.08-3.18-5.91a107.35,107.35,0,0,0-7.44-11.11,107.87,107.87,0,0,0-8.73-10.06c2.52,3.57,5,7.26,7.33,11s4.48,7.52,6.52,11.42c1.92,3.68,3.76,7.56,5.62,11.88L55,110.57l.09.2c.88,2,1.77,3.91,2.71,5.84.52,1.08,1.06,2.14,1.6,3.2a1.43,1.43,0,0,1-.22,1.61,1.39,1.39,0,0,1-1,.45A1.44,1.44,0,0,1,57.61,121.77Z" transform="translate(-0.58 -0.04)"/><path class="cls-3" d="M118,100.16a1.82,1.82,0,0,1-2.41-2.72,82.46,82.46,0,0,0,19-24.88c14.93-29.9,7.18-58.11,3.42-68.32-7.44,3.11-38,17.25-53.44,45.33C72.85,70.86,72.45,95,73.56,109c.93-2.3,1.79-4.48,2.59-6.58l5.6-14.77c1-2.4,2-5,3.14-7.5s2.39-5.07,3.6-7.36A131.54,131.54,0,0,1,97,58.88a125.86,125.86,0,0,1,21.85-24,1.82,1.82,0,0,1,2.67,2.43c-5.7,8.25-11.7,17.15-16.9,26.36-2.5,4.4-4.89,9-7.1,13.66-2.07,4.37-4,9-6,14.16L88.61,99c-1,2.45-2,4.91-3.06,7.34-1.62,3.7-3.25,7.13-4.92,10.42A88.39,88.39,0,0,0,89,113.81c2.67-1.08,5.33-2.3,7.92-3.63a1.82,1.82,0,1,1,1.66,3.23c-2.68,1.38-5.44,2.65-8.22,3.77A84.45,84.45,0,0,1,77.5,121.3a1.82,1.82,0,0,1-2-2.64c2.33-4.3,4.53-8.82,6.72-13.81,1.06-2.4,2-4.83,3-7.3l2.87-7.34c2-5.23,4-9.94,6.13-14.4,2.26-4.74,4.69-9.42,7.22-13.89,2.32-4.1,4.78-8.12,7.3-12.06A129.78,129.78,0,0,0,100,61,128.33,128.33,0,0,0,91.7,74.52c-1.17,2.22-2.32,4.57-3.5,7.16s-2.13,5-3.06,7.32l-5.59,14.75c-1.55,4.06-3.3,8.4-5.35,13.29a1.82,1.82,0,0,1-3.48-.45c-1.64-11.87-3.9-42.33,10.68-68.77C99.67,14.68,136.86.73,138.43.16a1.8,1.8,0,0,1,2.31,1c3.51,8.75,13.65,39.88-2.88,73A86.19,86.19,0,0,1,118,100.16Z" transform="translate(-0.58 -0.04)"/><path class="cls-3" d="M64.83,119.08c1-10.11,2-36-11.24-58C37.11,33.82,5.34,23.32,4,22.88A1.83,1.83,0,0,0,1.65,24.3C1.41,25.69-4.09,58.69,12.4,86c12.94,21.43,35.75,32.64,45,36.47a1.85,1.85,0,0,0,.69.14,1.83,1.83,0,0,0,1.34-.59,1.81,1.81,0,0,0,.28-2.06c-.54-1.06-1.07-2.12-1.59-3.19-.94-1.93-1.83-3.89-2.71-5.84l-2.74-6.24c-1.87-4.33-3.71-8.22-5.63-11.89-2-3.92-4.25-7.77-6.53-11.44-1.36-2.2-2.77-4.38-4.22-6.52,1.71,1.92,3.36,3.93,5,6a108.13,108.13,0,0,1,7.4,11.07c1,1.81,2.09,3.73,3.17,5.87s1.95,4.11,2.81,6L59.75,116l1.2,2.72.4.92a1.82,1.82,0,0,0,3.48-.55Zm-3.13-7.82-3.78-8.88c-.89-2-1.85-4.12-2.89-6.22s-2.19-4.2-3.28-6.08a111.21,111.21,0,0,0-7.66-11.45A106.18,106.18,0,0,0,24.91,59.19a1.84,1.84,0,0,0-1.11-.38,1.83,1.83,0,0,0-1.46,2.92c5.05,6.72,10.37,14,15,21.53,2.24,3.61,4.39,7.38,6.4,11.21,1.87,3.59,3.67,7.4,5.51,11.66l2.77,6.29c.7,1.55,1.4,3.1,2.13,4.64-10.42-5-28.07-15.39-38.68-32.95C2.09,61.89,4,34.85,4.94,27.09,12.22,29.9,37.06,40.77,50.48,63,60.67,79.86,62.06,99.23,61.7,111.26Z" transform="translate(-0.58 -0.04)"/></svg>