<?xml version="1.0" encoding="utf-8"?>
<!-- Generator: Adobe Illustrator 25.2.0, SVG Export Plug-In . SVG Version: 6.00 Build 0)  -->
<svg version="1.1" id="Layer_1" xmlns="http://www.w3.org/2000/svg" xmlns:xlink="http://www.w3.org/1999/xlink" x="0px" y="0px"
	 viewBox="0 0 278.7 211.6" style="enable-background:new 0 0 278.7 211.6;" xml:space="preserve">
<style type="text/css">
	.st0{fill:#3F3F41;}
	.st1{fill:#566A5F;}
	.st2{fill:#719267;}
</style>
<g>
	<g>
		<path class="st0" d="M3.9,211.6h-4v-23.3h4V211.6z M3.9,199.6l9.5-11.3h4.8l-9.8,11.3l10.4,12H14L3.9,199.6z"/>
		<path class="st0" d="M26.3,191.5v6.1h9.6v3h-9.6v4.3c0,2.3,1.1,3.5,3.4,3.5h7.6v3.2H29c-5.1,0-6.7-1.6-6.7-6.3v-17h15v3.2H26.3z"
			/>
		<path class="st0" d="M57.2,211.6h-8.7c-4.7,0-6.4-1.5-6.4-5.6v-17.7h4v16.6c0,2.6,1,3.5,3.6,3.5h7.5V211.6z"/>
		<path class="st0" d="M65.3,211.6h-4v-23.3h4V211.6z"/>
		<path class="st0" d="M96.5,188.3v23.3h-3.8v-18.6l-7.1,14h-3.2l-7.1-14v18.6h-3.8v-23.3h5.6l6.9,14.1l6.8-14.1H96.5z"/>
		<path class="st0" d="M129.7,188.3l-7.8,13.6v9.6h-4v-9.6l-7.8-13.6h4.3l5.6,10.4l5.6-10.4H129.7z"/>
		<path class="st0" d="M137.4,191.5v6.1h9.6v3h-9.6v4.3c0,2.3,1.1,3.5,3.4,3.5h7.6v3.2h-8.2c-5.1,0-6.7-1.6-6.7-6.3v-17h15v3.2
			H137.4z"/>
		<path class="st0" d="M169.8,211.6h-4l-0.9-4.2c-0.7-3.7-1.6-4.9-4.4-5h-3.3v9.1h-4v-23.3h8.8c4.9,0,7.1,2.2,7.1,6.8
			c0,3.3-1.3,5.3-4.1,6c2.1,0.9,3.1,2.7,3.9,6.4L169.8,211.6z M160.6,199.5c3.3,0,4.5-1.3,4.5-4.1c0-2.8-1.2-4.1-4.5-4.1h-3.4v8.2
			H160.6z"/>
		<path class="st0" d="M192.5,197v5.7c0,6.2-3.1,9-9.4,9c-6.5,0-9.5-2.9-9.5-9V197c0-6.1,3.1-8.9,9.5-8.9
			C189.4,188.1,192.5,190.9,192.5,197z M177.5,203.1c0,3.8,1.9,5.7,5.5,5.7c3.6,0,5.5-1.8,5.5-5.7v-6.5c0-3.8-1.8-5.6-5.5-5.6
			c-3.7,0-5.5,1.8-5.5,5.6V203.1z"/>
		<path class="st0" d="M215.7,197v5.7c0,6.2-3.1,9-9.4,9c-6.5,0-9.5-2.9-9.5-9V197c0-6.1,3.1-8.9,9.5-8.9
			C212.6,188.1,215.7,190.9,215.7,197z M200.7,203.1c0,3.8,1.9,5.7,5.5,5.7c3.6,0,5.5-1.8,5.5-5.7v-6.5c0-3.8-1.8-5.6-5.5-5.6
			c-3.7,0-5.5,1.8-5.5,5.6V203.1z"/>
		<path class="st0" d="M224.9,211.6h-4v-23.3h4V211.6z M224.9,199.6l9.5-11.3h4.8l-9.8,11.3l10.4,12H235L224.9,199.6z"/>
		<path class="st0" d="M247.5,211.6h-4v-23.3h4V211.6z"/>
		<path class="st0" d="M278.7,188.3v23.3h-3.8v-18.6l-7.1,14h-3.2l-7.1-14v18.6h-3.8v-23.3h5.6l6.9,14.1l6.8-14.1H278.7z"/>
	</g>
	<g>
		<g>
			<g>
				<path class="st1" d="M134.5,171.5c-0.1,0-0.3,0-0.4,0c-9.8-2.2-60-15.8-85.4-66.7c-23.4-46.9-9-90.9-4.1-103.3
					c0.4-1,1.5-1.5,2.6-1.1c0.5,0.2,54.9,20.6,80.8,67.5c20.6,37.4,17.4,80.6,15.1,97.4c-0.1,0.9-0.8,1.6-1.7,1.7
					c-0.9,0.1-1.8-0.4-2.1-1.2c-2.9-6.9-5.4-13.1-7.6-18.9l-7.9-21c-1.3-3.3-2.8-6.9-4.4-10.4c-1.7-3.7-3.3-7-5-10.2
					c-3.7-6.9-7.7-13.4-11.8-19.3C97.1,78.4,91.3,71.4,85.2,65c4.9,7.4,9.7,15,14.1,22.9c3.6,6.4,7.1,13,10.2,19.7
					c3,6.3,5.8,13,8.7,20.4l4.2,10.7c1.4,3.3,2.8,6.8,4.2,10.1c3.1,7.1,6.3,13.6,9.6,19.7c0.4,0.7,0.3,1.5-0.2,2.2
					C135.7,171.2,135.1,171.5,134.5,171.5z"/>
			</g>
			<g>
				<g>
					<path class="st2" d="M161.6,173.3c-0.6,0-1.1-0.2-1.5-0.6c-0.6-0.6-0.7-1.5-0.3-2.3c0.8-1.5,1.5-3,2.3-4.5
						c1.3-2.8,2.6-5.5,3.9-8.3l0.1-0.3l3.8-8.6c2.6-6.1,5.3-11.7,8-16.9c2.9-5.6,6-11,9.3-16.2c3.3-5.4,6.8-10.6,10.4-15.7
						c-4.3,4.4-8.5,9.2-12.4,14.3c-3.7,4.8-7.2,10.1-10.6,15.8c-1.5,2.6-3,5.3-4.5,8.4c-1.4,2.9-2.8,5.9-4,8.6l-7.3,17.3
						c-0.6,1.3-1.1,2.6-1.7,3.9l-0.6,1.3c-0.4,0.8-1.3,1.3-2.2,1.2c-0.9-0.1-1.6-0.9-1.7-1.8c-1.5-14.3-2.9-50.9,15.9-82.1l0,0
						c23.3-38.6,68.3-53.5,70.2-54.1c0.6-0.2,1.2-0.1,1.7,0.2c0.5,0.3,0.8,0.8,0.9,1.4c0.3,2,8.1,48.7-15.2,87.3
						c-18.3,30.3-50.6,46.2-63.6,51.6C162.1,173.2,161.8,173.3,161.6,173.3z"/>
				</g>
			</g>
		</g>
		<path class="st0" d="M76.6,142.4c1.1,1,2.7,0.9,3.6-0.2c0.9-1.1,0.9-2.7-0.2-3.6c-11.3-10-20.4-21.9-27.1-35.4
			C31.8,60.7,42.8,20.7,48.1,6.1C58.7,10.6,102,30.7,124,70.5c16.7,30.2,17.2,64.5,15.7,84.5c-1.3-3.3-2.5-6.4-3.7-9.3l-8-21
			c-1.4-3.4-2.8-7.1-4.5-10.7c-1.7-3.8-3.4-7.2-5.1-10.5c-3.8-7.1-7.9-13.7-12.1-19.8c-9.2-13-19.7-24.5-31.1-34
			c-1-0.8-2.4-0.8-3.4,0.1c-1,0.9-1.1,2.3-0.4,3.4c8.1,11.7,16.6,24.4,24,37.5c3.5,6.2,6.9,12.8,10.1,19.4
			c2.9,6.2,5.7,12.8,8.6,20.1l4.2,10.6c1.4,3.5,2.8,7,4.3,10.4c2.3,5.2,4.6,10.1,7,14.8c-3.2-0.9-7.2-2.3-11.9-4.1
			c-3.8-1.5-7.6-3.3-11.2-5.2c-1.3-0.7-2.8-0.2-3.5,1.1c-0.7,1.3-0.2,2.8,1.1,3.5c3.8,2,7.7,3.8,11.7,5.4c8.4,3.4,15.1,5.1,18.3,5.8
			c0.2,0,0.4,0.1,0.6,0.1c0.8,0,1.6-0.4,2.1-1c0.6-0.8,0.7-1.9,0.2-2.8c-3.3-6.1-6.4-12.5-9.5-19.6c-1.5-3.4-2.9-6.9-4.3-10.4
			l-4.1-10.4c-2.9-7.4-5.7-14.1-8.7-20.5c-3.2-6.7-6.7-13.4-10.3-19.7c-3.3-5.8-6.8-11.5-10.4-17.1c4.4,4.9,8.5,10.2,12.5,15.8
			c4.2,5.9,8.1,12.4,11.8,19.2c1.7,3.2,3.3,6.5,5,10.2c1.6,3.5,3,7.1,4.3,10.4l7.9,21c2.2,5.8,4.7,11.9,7.6,18.9
			c0.5,1.1,1.6,1.7,2.7,1.6c1.2-0.1,2.1-1.1,2.2-2.2c2.3-16.9,5.5-60.1-15.2-97.7c-26-47.1-78.8-66.9-81-67.7
			c-1.3-0.5-2.8,0.2-3.3,1.5c-5,12.4-19.4,56.7,4.1,103.7C55.3,119.6,64.8,132,76.6,142.4z"/>
		<path class="st0" d="M154.3,171.6c1.2,0.2,2.3-0.4,2.8-1.5l0.6-1.3c0.6-1.3,1.1-2.6,1.7-3.9l7.3-17.3c1.2-2.8,2.6-5.7,4-8.6
			c1.5-3,3-5.8,4.5-8.3c3.3-5.6,6.8-10.9,10.5-15.7c2.3-3,4.6-5.8,7-8.5c-2.1,3-4.1,6.1-6,9.3c-3.2,5.2-6.4,10.7-9.3,16.3
			c-2.7,5.2-5.3,10.7-8,16.9l-3.9,8.9c-1.3,2.8-2.5,5.5-3.9,8.3c-0.7,1.5-1.5,3-2.3,4.5c-0.5,1-0.3,2.1,0.4,2.9
			c0.5,0.5,1.2,0.8,1.9,0.8c0.3,0,0.7-0.1,1-0.2c13.1-5.4,45.5-21.4,63.9-51.8c23.4-38.8,15.6-85.7,15.3-87.6
			c-0.1-0.7-0.6-1.4-1.2-1.8c-0.6-0.4-1.4-0.5-2.1-0.2c-1.9,0.6-47,15.5-70.5,54.3c-18.9,31.2-17.4,68-16,82.4
			C152.2,170.5,153.1,171.4,154.3,171.6z M172.5,89.6c19.1-31.6,54.4-47,64.7-51c1.3,11,4,49.4-15,81
			c-15.1,24.9-40.1,39.8-54.9,46.8c1-2.2,2-4.4,3-6.6l3.9-8.9c2.6-6,5.2-11.5,7.8-16.6c2.9-5.4,5.9-10.8,9.1-15.9
			c6.6-10.7,14.2-21,21.4-30.6c0.8-1,0.7-2.5-0.3-3.4c-0.5-0.5-1.2-0.7-1.8-0.7c-0.6,0-1.1,0.2-1.6,0.5
			c-9.9,7.7-19.1,16.9-27.3,27.6c-3.8,5-7.5,10.4-10.9,16.3c-1.6,2.7-3.1,5.5-4.7,8.6c-1.5,3-2.8,6-4.1,8.8l-5.4,12.6
			C156,141.1,158,113.6,172.5,89.6z"/>
	</g>
</g>
</svg>
