<?xml version="1.0" encoding="utf-8"?>
<!-- Generator: Adobe Illustrator 25.2.0, SVG Export Plug-In . SVG Version: 6.00 Build 0)  -->
<svg version="1.1" id="Capa_1" xmlns="http://www.w3.org/2000/svg" xmlns:xlink="http://www.w3.org/1999/xlink" x="0px" y="0px"
	 viewBox="0 0 512 334" style="enable-background:new 0 0 512 334;" xml:space="preserve">
<style type="text/css">
	.st0{fill:#719066;}
	.st1{fill:#3F3F40;}
</style>
<polygon class="st0" points="431.8,75.8 8,114.6 32.5,293.3 49.3,304.5 339.9,324 365.4,307.1 "/>
<g>
	<g>
		<path class="st1" d="M0.1,116.7l21.5,164.9c1.9,14.8,14.1,26.3,29,27.4L334,329.7c1,0.1,2,0.1,3,0.1c17.4,0,32.7-11.2,37.8-28.1
			l62.7-207.6c2.2,0.7,4.5,1,6.9,1c6.3,0,12.2-2.4,16.6-6.9l44.1-44.1c4.4-4.4,6.9-10.4,6.9-16.6s-2.4-12.2-6.9-16.6
			C500.7,6.5,494.8,4,488.5,4c-6.3,0-12.2,2.4-16.6,6.9L427.7,55c-4.3,4.3-6.6,10-6.8,15.7L6.8,108.2c-2,0.2-3.9,1.2-5.2,2.8
			C0.4,112.6-0.2,114.7,0.1,116.7z M438.3,65.6l44.1-44.1c1.6-1.6,3.8-2.5,6-2.5c2.3,0,4.4,0.9,6,2.5c1.6,1.6,2.5,3.8,2.5,6
			s-0.9,4.4-2.5,6l-44.1,44.1c-1.6,1.6-3.8,2.5-6,2.5s-4.4-0.9-6-2.5C435,74.3,435,68.9,438.3,65.6z M331.5,93.8l-11.1,59.4
			l-70.1,2.6l3.4-54.9L331.5,93.8z M404.9,150.1l-69.1,2.5L347,92.4l77.4-7L404.9,150.1z M320.5,235.1l12.5-67.3l67.3-2.5l-21.5,71
			L320.5,235.1z M306,312.7l11.7-62.7l56.7,1.3l-13.9,46.1c-3.3,11.1-13.7,18.2-25.3,17.4L306,312.7z M305.3,234.7l-59.7-1.3
			l3.9-62.6l68.2-2.5L305.3,234.7z M241,307.9l3.7-59.5l57.8,1.3L291,311.5L241,307.9z M171.5,246.7l58.2,1.3l-3.6,58.8l-53-3.9
			L171.5,246.7z M169.5,173.7l64.8-2.4l-3.8,61.7l-59.5-1.3L169.5,173.7z M167.8,108.7l70.8-6.4l-3.3,54l-66.2,2.4L167.8,108.7z
			 M96.6,245.1l59.9,1.3l1.5,55.4l-57.1-4.2L96.6,245.1z M91.1,176.6l63.5-2.3l1.5,57.1l-60.7-1.3L91.1,176.6z M86.2,116.1l66.6-6
			l1.3,49.2l-64.3,2.3L86.2,116.1z M31.7,243.6l49.8,1.1l4.2,51.8l-34-2.5c-7.8-0.6-14.2-6.6-15.2-14.4L31.7,243.6z M23.3,179.1
			l52.7-1.9l4.2,52.6l-50.5-1.1L23.3,179.1z M15.9,122.5l55.3-5l3.6,44.7l-53.5,1.9L15.9,122.5z"/>
	</g>
</g>
</svg>
