<?xml version="1.0" encoding="utf-8"?>
<!-- Generator: Adobe Illustrator 25.2.0, SVG Export Plug-In . SVG Version: 6.00 Build 0)  -->
<svg version="1.1" id="Layer_1" xmlns="http://www.w3.org/2000/svg" xmlns:xlink="http://www.w3.org/1999/xlink" x="0px" y="0px"
	 viewBox="0 0 344 195.9" style="enable-background:new 0 0 344 195.9;" xml:space="preserve">
<style type="text/css">
	.st0{fill:#3F3F41;}
	.st1{fill:none;stroke:#3F3F41;stroke-width:2;stroke-miterlimit:10;}
	.st2{fill:#FFFFFF;}
	.st3{fill:#566A5F;}
	.st4{opacity:0.42;fill:#CDA678;}
	.st5{fill:#719267;}
</style>
<g>
	<path class="st0" d="M433.3,68.3h-12.5v-7.4h4.4v3.9h12.8v3.5l-8.4,19.9h-4.8L433.3,68.3z"/>
	<path class="st0" d="M463.3,80.1c0,5.5-2.5,8.1-7.9,8.1h-3.9v-3.5h3c3.1,0,4.2-1.4,4.2-4.7V68.3H443v-3.5h20.3V80.1z M447.8,74.6
		V96h-4.6V74.6H447.8z"/>
	<path class="st0" d="M487.3,68.3h-3.1v19.9h-4.6V68.3h-11.8v-3.5h19.5V68.3z"/>
	<path class="st0" d="M505.3,78.2v-9.8h-3.2v-3.5h7.8v13.3H505.3z"/>
	<path class="st0" d="M526.4,68.3H514v-7.4h4.4v3.9h12.8v3.5l-8.4,19.9H518L526.4,68.3z"/>
	<path class="st0" d="M555.4,64.8v12.6c0,5.7-2.6,8.3-8.2,9.8l-11.5,3l-0.8-3.4l6-1.6l-2.7-16.8h-3.4v-3.5h6.1
		c0.7,0,1.2,0.4,1.4,1.4l2.8,17.8l1.6-0.5c3.1-0.8,4.1-2.6,4.1-6.2v-9h-3.5v-3.5H555.4z"/>
	<path class="st0" d="M582.3,74v14.2h-11.4v-3.5h6.9V73.5c0-3.7-1-5.4-3.4-5.4c-1.8,0-2.9,0.8-4.1,4.1l-5.7,16h-4.6l4-11.3
		l-4.2-12.1h4.5l2.2,6.9l0.3-0.9c1.9-4.8,3.9-6.2,7.8-6.2C579.8,64.6,582.3,67.4,582.3,74z"/>
	<path class="st0" d="M620.9,71.6v16.6h-20.2V68.3h-2.4v-3.5h15.9C618.8,64.8,620.9,66.8,620.9,71.6z M616.4,72.4
		c0-2.8-1.1-4.1-3.5-4.1h-7.7v16.4h11.2V72.4z"/>
	<path class="st0" d="M628.8,78.2v-9.8h-3.2v-3.5h7.8v13.3H628.8z"/>
	<path class="st0" d="M650,68.3h-12.5v-7.4h4.4v3.9h12.8v3.5l-8.4,19.9h-4.8L650,68.3z"/>
	<path class="st0" d="M676.3,79.3c0,6.2-2.6,9-8.9,9h-8.9v-3.5h7.3c4.1,0,5.7-2,5.7-6.6v-9.8h-13.1v-3.5h17.8V79.3z"/>
</g>
<g>
	<path class="st0" d="M38.1-95.3c0,5.5-2.5,8.1-7.9,8.1h-3.9v-3.5h3c3.1,0,4.2-1.4,4.2-4.7v-11.7H17.8v-3.5h20.3V-95.3z M22.5-100.8
		v21.4H18v-21.4H22.5z"/>
	<path class="st0" d="M46.5-87.2v-19.9h-3.4v-3.5h8v23.4H46.5z"/>
	<path class="st0" d="M76.7-90.7v3.5H56.4v-3.5h12.7v-12.4c0-2.9-1.1-4-4-4h-8.7v-3.5H66c5.6,0,7.6,1.9,7.6,7.2v12.7H76.7z"/>
	<path class="st0" d="M101.9-101.4v14.2H90.5v-3.5h6.9v-11.2c0-3.7-1-5.4-3.4-5.4c-1.8,0-2.9,0.8-4.1,4.1l-5.7,16h-4.6l4-11.3
		l-4.2-12.1h4.5l2.2,6.9l0.3-0.9c1.9-4.8,3.9-6.2,7.8-6.2C99.4-110.8,101.9-108.1,101.9-101.4z"/>
	<path class="st0" d="M127.2-90.7v3.5h-20.3v-3.5h12.7v-12.4c0-2.9-1.1-4-4-4h-8.7v-3.5h9.6c5.6,0,7.6,1.9,7.6,7.2v12.7H127.2z"/>
	<path class="st0" d="M160.7-110.6v11.1c0,5.7-2.9,6.9-5.7,6.9c-1.1,0-2-0.2-2.7-0.5l6.3,13.8h-4.5l-14.2-31.2h4.5l5.3,11.7v0
		c1.1,2.1,2,3.1,3.9,3.1c1.9,0,2.7-1.4,2.7-4.1v-7.1H152v-3.4H160.7z"/>
	<path class="st0" d="M185.8-110.6V-98c0,5.7-2.6,8.3-8.2,9.8l-11.5,3l-0.8-3.4l6-1.6l-2.7-16.8h-3.4v-3.5h6.1
		c0.7,0,1.2,0.4,1.4,1.4l2.8,17.8l1.6-0.5c3.1-0.8,4.1-2.6,4.1-6.2v-9h-3.5v-3.5H185.8z"/>
	<path class="st0" d="M212.7-101.4v14.2h-11.4v-3.5h6.9v-11.2c0-3.7-1-5.4-3.4-5.4c-1.8,0-2.9,0.8-4.1,4.1l-5.7,16h-4.6l4-11.3
		l-4.2-12.1h4.5l2.2,6.9l0.3-0.9c1.9-4.8,3.9-6.2,7.8-6.2C210.2-110.8,212.7-108.1,212.7-101.4z"/>
	<path class="st0" d="M251.2-103.8v16.6h-20.2v-19.9h-2.4v-3.5h15.9C249.2-110.6,251.2-108.6,251.2-103.8z M246.8-103
		c0-2.8-1.1-4.1-3.5-4.1h-7.7v16.4h11.2V-103z"/>
	<path class="st0" d="M259.2-97.3v-9.8H256v-3.5h7.8v13.3H259.2z"/>
	<path class="st0" d="M280.4-107.1h-12.5v-7.4h4.4v3.9h12.8v3.5l-8.4,19.9H272L280.4-107.1z"/>
	<path class="st0" d="M306.7-96.2c0,6.2-2.6,9-8.9,9h-8.9v-3.5h7.3c4.1,0,5.7-2,5.7-6.6v-9.8h-13.1v-3.5h17.8V-96.2z"/>
</g>
<g>
	<path class="st0" d="M43,157.3c0-3.8-1.5-5.4-4.9-5.4h-7.3v-3.5h8.1c6,0,8.7,2.5,8.7,8.3v15.1H43V157.3z"/>
	<path class="st0" d="M70.5,162.8c0,6.2-2.6,9-8.9,9h-8.9v-3.5H60c4.1,0,5.7-2,5.7-6.6v-9.8H52.7v-3.5h17.8V162.8z"/>
	<path class="st0" d="M78.9,171.8v-19.9h-3.4v-3.5h8v23.4H78.9z"/>
	<path class="st0" d="M111,148.4v14.1c0,6.9-3.1,9.5-10,9.5c-6.9,0-10-2.6-10-9.5v-10.6h-2.4v-3.5H111z M106.4,151.9H95.5v10.5
		c0,4.3,1.7,6,5.5,6s5.5-1.8,5.5-6V151.9z"/>
	<path class="st0" d="M148.2,171.8h-4.6v-19.9h-15.4v-3.5h20V171.8z M132.9,157.6v14.2h-4.6v-14.2H132.9z"/>
	<path class="st0" d="M163.4,154.1v17.6h-10.2v-3.5h5.7v-13.7c0-1.9-0.7-2.7-2.3-2.7h-2.4v-3.5l4.4,0
		C162,148.5,163.4,150.1,163.4,154.1z"/>
	<path class="st0" d="M189.8,163.7c0,5.5-2.5,8.1-7.9,8.1H178v-3.5h3c3.1,0,4.2-1.4,4.2-4.7v-11.7h-15.8v-3.5h20.3V163.7z
		 M174.2,158.2v21.4h-4.6v-21.4H174.2z"/>
	<path class="st0" d="M216.9,157.6v14.2h-11.4v-3.5h6.9v-11.2c0-3.7-1-5.4-3.4-5.4c-1.8,0-2.9,0.8-4.1,4.1l-5.7,16h-4.6l4-11.3
		l-4.2-12.1h4.5l2.2,6.9l0.3-0.9c1.9-4.8,3.9-6.2,7.8-6.2C214.4,148.2,216.9,150.9,216.9,157.6z"/>
	<path class="st0" d="M255.5,155.2v16.6h-20.2v-19.9h-2.4v-3.5h15.9C253.4,148.4,255.5,150.4,255.5,155.2z M251,155.9
		c0-2.8-1.1-4.1-3.5-4.1h-7.7v16.4H251V155.9z"/>
	<path class="st0" d="M263.4,161.7v-9.8h-3.2v-3.5h7.8v13.3H263.4z"/>
	<path class="st0" d="M284.6,151.9h-12.5v-7.4h4.4v3.9h12.8v3.5l-8.4,19.9h-4.8L284.6,151.9z"/>
	<path class="st0" d="M310.9,162.8c0,6.2-2.6,9-8.9,9h-8.9v-3.5h7.3c4.1,0,5.7-2,5.7-6.6v-9.8h-13.1v-3.5h17.8V162.8z"/>
</g>
<path class="st1" d="M330.5,194.9H13c-6.6,0-12-5.4-12-12v-57.2c0-6.6,5.4-12,12-12h317.5c6.6,0,12,5.4,12,12v57.2
	C342.5,189.5,337.1,194.9,330.5,194.9z"/>
<path class="st1" d="M321-61H3.5c-6.6,0-12-5.4-12-12v-57.2c0-6.6,5.4-12,12-12H321c6.6,0,12,5.4,12,12V-73
	C333-66.4,327.6-61,321-61z"/>
<path class="st1" d="M708.2,114.4H390.7c-6.6,0-12-5.4-12-12V45.2c0-6.6,5.4-12,12-12h317.5c6.6,0,12,5.4,12,12v57.2
	C720.2,109,714.8,114.4,708.2,114.4z"/>
<g>
	<rect x="455.6" y="23.2" class="st2" width="25.9" height="16"/>
	<rect x="618" y="26.2" class="st2" width="25.5" height="14.3"/>
	<rect x="504.3" y="20.8" class="st2" width="86.8" height="24.2"/>
	<g>
		<path class="st0" d="M609.2-18.7c-0.2,34-27.7,61.4-61.4,61.2c-34.1-0.1-61.2-28-60.9-62.8c0.3-32.5,28.3-60.1,60.9-59.9
			C581.9-80,609.4-52.5,609.2-18.7z M492.6-18.8c0,30.5,25,55.7,55.3,55.7c30.5,0,55.5-25.2,55.6-55.9c0-30.3-25.2-55.6-55.5-55.6
			C517.6-74.5,492.6-49.3,492.6-18.8z"/>
		<path class="st0" d="M461.1-53.6c2.1,0,3.7,0,5.7,0c0-6.6-0.2-13,0.1-19.4c0.1-2.5-1.7-6.9,2.9-6.8c4.4,0.1,2.6,4.5,2.7,7
			c0.2,6.3,0.1,12.6,0.1,19.1c2,0,3.6,0,5.7,0c0-6.9-0.1-13.7,0-20.5c0-2.4-1-5.9,2.9-5.8c3.6,0,2.7,3.4,2.7,5.7
			c0.1,10.1,0,20.2,0,30.3c0,6.9-2.8,12-9.3,14.6c-2.2,0.8-2.1,2.3-2.1,4c0,20.6,0,41.1,0,61.7c0,2.3,1.1,5.9-2.8,6
			c-4,0.1-2.9-3.5-2.9-5.9c-0.1-20.4-0.1-40.9,0-61.3c0-2.4-0.4-3.8-3-4.9c-5.5-2.3-8.4-6.9-8.5-12.9c-0.1-11.1,0-22.1,0-33.2
			c0-2.1,0.3-4.1,3-4c2.6,0.1,2.8,2.2,2.8,4.2C461.1-68.5,461.1-61.2,461.1-53.6z M461.3-47.4c-0.5,4.9-0.6,9.3,4,11.9
			c3.2,1.9,6.6,1.7,9.5-0.5c3.8-2.9,3.7-7,3-11.4C472.4-47.4,467-47.4,461.3-47.4z"/>
		<path class="st0" d="M629.1-10.3c-2.4,0-4.3,0-6.3,0c-4.7,0-5.1-0.5-5.1-5.3c0-10,0-19.9,0-29.9c0-6.7-0.2-13.4,0.1-20.1
			c0.3-7.9,5.3-13.6,12.3-14.4c3.6-0.4,4.8,0.5,4.8,4c0,38.1,0,76.1,0,114.2c0,2.1-0.3,4.1-2.9,4.1c-2.6-0.1-2.9-2.1-2.9-4.2
			c0-14.6,0-29.2,0-43.8C629.1-7,629.1-8.3,629.1-10.3z M628.9-16.2c0-19.1,0-38.1,0-57.5c-4.2,2.1-5.3,5.2-5.4,9.1
			c0,15.2,0,30.4,0,45.6c0,0.9,0.2,1.8,0.3,2.8C625.7-16.2,627.2-16.2,628.9-16.2z"/>
		<path class="st3" d="M492.6-18.8c0-30.5,25-55.6,55.4-55.7c30.3,0,55.5,25.2,55.5,55.6c0,30.7-25.1,55.9-55.6,55.9
			C517.6,36.9,492.6,11.6,492.6-18.8z M548.3-64.8c-2.4,0.2-4.9,0.2-7.3,0.6c-23.7,3.8-40.2,24.6-38.8,48.6
			c1.4,23.5,20.7,42.2,44.6,42.7c18.6,0.4,32.8-7.9,41.5-24.2c8.6-16.2,7.4-32.6-2.7-48.1c-1.2-1.8-2.7-3.6-5-2
			c-2.4,1.7-0.9,3.6,0.3,5.3c6.4,9.3,8.4,19.5,6.5,30.6c-3.6,21-24.1,35.5-45.5,32.2c-21.2-3.2-36.7-23.7-33.8-44.4
			c4.3-30.7,37.2-45.5,63.1-28.3c1.7,1.1,3.6,2.3,5.1,0.2c1.6-2.3-0.1-3.8-2-5C566.4-62,557.8-64.8,548.3-64.8z"/>
		<path class="st4" d="M461.3-47.4c5.7,0,11.1,0,16.6,0c0.7,4.4,0.8,8.4-3,11.4c-3,2.3-6.3,2.4-9.5,0.5
			C460.8-38.1,460.9-42.5,461.3-47.4z"/>
		<path class="st4" d="M628.9-16.2c-1.7,0-3.2,0-5,0c-0.1-1-0.3-1.9-0.3-2.8c0-15.2,0-30.4,0-45.6c0-3.9,1.2-7.1,5.4-9.1
			C628.9-54.3,628.9-35.3,628.9-16.2z"/>
		<path class="st0" d="M548.3-64.8c9.5,0.1,18.2,2.9,26,8.3c1.8,1.3,3.5,2.8,2,5c-1.5,2.1-3.4,0.9-5.1-0.2
			c-25.9-17.2-58.8-2.4-63.1,28.3c-2.9,20.7,12.7,41.2,33.8,44.4c21.4,3.3,41.9-11.3,45.5-32.2c1.9-11.1-0.1-21.3-6.5-30.6
			c-1.2-1.8-2.7-3.7-0.3-5.3c2.3-1.6,3.8,0.1,5,2c10.1,15.5,11.4,31.8,2.7,48.1c-8.7,16.3-22.9,24.6-41.5,24.2
			c-23.9-0.5-43.2-19.2-44.6-42.7c-1.5-24,15.1-44.7,38.8-48.6C543.4-64.7,545.8-64.7,548.3-64.8z"/>
	</g>
</g>
<g>
	<rect x="68.4" y="-152.3" class="st2" width="25.9" height="16"/>
	<rect x="230.8" y="-149.2" class="st2" width="25.5" height="14.3"/>
	<rect x="117.1" y="-154.6" class="st2" width="86.8" height="24.2"/>
	<g>
		<path class="st0" d="M222-194.1c-0.2,34-27.7,61.4-61.4,61.2c-34.1-0.1-61.2-28-60.9-62.8c0.3-32.5,28.3-60.1,60.9-59.9
			C194.7-255.4,222.2-228,222-194.1z M105.4-194.3c0,30.5,25,55.7,55.3,55.7c30.5,0,55.5-25.2,55.6-55.9c0-30.3-25.2-55.6-55.5-55.6
			C130.4-249.9,105.4-224.8,105.4-194.3z"/>
		<path class="st0" d="M73.9-229c2.1,0,3.7,0,5.7,0c0-6.6-0.2-13,0.1-19.4c0.1-2.5-1.7-6.9,2.9-6.8c4.4,0.1,2.6,4.5,2.7,7
			c0.2,6.3,0.1,12.6,0.1,19.1c2,0,3.6,0,5.7,0c0-6.9-0.1-13.7,0-20.5c0-2.4-1-5.9,2.9-5.8c3.6,0,2.7,3.4,2.7,5.7
			c0.1,10.1,0,20.2,0,30.3c0,6.9-2.8,12-9.3,14.6c-2.2,0.8-2.1,2.3-2.1,4c0,20.6,0,41.1,0,61.7c0,2.3,1.1,5.9-2.8,6
			c-4,0.1-2.9-3.5-2.9-5.9c-0.1-20.4-0.1-40.9,0-61.3c0-2.4-0.4-3.8-3-4.9c-5.5-2.3-8.4-6.9-8.5-12.9c-0.1-11.1,0-22.1,0-33.2
			c0-2.1,0.3-4.1,3-4c2.6,0.1,2.8,2.2,2.8,4.2C73.9-243.9,73.9-236.6,73.9-229z M74.1-222.8c-0.5,4.9-0.6,9.3,4,11.9
			c3.2,1.9,6.6,1.7,9.5-0.5c3.8-2.9,3.7-7,3-11.4C85.2-222.8,79.8-222.8,74.1-222.8z"/>
		<path class="st0" d="M241.9-185.7c-2.4,0-4.3,0-6.3,0c-4.7,0-5.1-0.5-5.1-5.3c0-10,0-19.9,0-29.9c0-6.7-0.2-13.4,0.1-20.1
			c0.3-7.9,5.3-13.6,12.3-14.4c3.6-0.4,4.8,0.5,4.8,4c0,38.1,0,76.1,0,114.2c0,2.1-0.3,4.1-2.9,4.1c-2.6-0.1-2.9-2.1-2.9-4.2
			c0-14.6,0-29.2,0-43.8C241.9-182.4,241.9-183.7,241.9-185.7z M241.7-191.6c0-19.1,0-38.1,0-57.5c-4.2,2.1-5.3,5.2-5.4,9.1
			c0,15.2,0,30.4,0,45.6c0,0.9,0.2,1.8,0.3,2.8C238.4-191.6,240-191.6,241.7-191.6z"/>
		<path class="st5" d="M105.4-194.3c0-30.5,25-55.6,55.4-55.7c30.3,0,55.5,25.2,55.5,55.6c0,30.7-25.1,55.9-55.6,55.9
			C130.4-138.5,105.4-163.8,105.4-194.3z M161-240.3c-2.4,0.2-4.9,0.2-7.3,0.6c-23.7,3.8-40.2,24.6-38.8,48.6
			c1.4,23.5,20.7,42.2,44.6,42.7c18.6,0.4,32.8-7.9,41.5-24.2c8.6-16.2,7.4-32.6-2.7-48.1c-1.2-1.8-2.7-3.6-5-2
			c-2.4,1.7-0.9,3.6,0.3,5.3c6.4,9.3,8.4,19.5,6.5,30.6c-3.6,21-24.1,35.5-45.5,32.2c-21.2-3.2-36.7-23.7-33.8-44.4
			c4.3-30.7,37.2-45.5,63.1-28.3c1.7,1.1,3.6,2.3,5.1,0.2c1.6-2.3-0.1-3.8-2-5C179.2-237.4,170.6-240.2,161-240.3z"/>
		<path class="st3" d="M74.1-222.8c5.7,0,11.1,0,16.6,0c0.7,4.4,0.8,8.4-3,11.4c-3,2.3-6.3,2.4-9.5,0.5
			C73.6-213.5,73.6-218,74.1-222.8z"/>
		<path class="st3" d="M241.7-191.6c-1.7,0-3.2,0-5,0c-0.1-1-0.3-1.9-0.3-2.8c0-15.2,0-30.4,0-45.6c0-3.9,1.2-7.1,5.4-9.1
			C241.7-229.7,241.7-210.8,241.7-191.6z"/>
		<path class="st0" d="M161-240.3c9.5,0.1,18.2,2.9,26,8.3c1.8,1.3,3.5,2.8,2,5c-1.5,2.1-3.4,0.9-5.1-0.2
			c-25.9-17.2-58.8-2.4-63.1,28.3c-2.9,20.7,12.7,41.2,33.8,44.4c21.4,3.3,41.9-11.3,45.5-32.2c1.9-11.1-0.1-21.3-6.5-30.6
			c-1.2-1.8-2.7-3.7-0.3-5.3c2.3-1.6,3.8,0.1,5,2c10.1,15.5,11.4,31.8,2.7,48.1c-8.7,16.3-22.9,24.6-41.5,24.2
			c-23.9-0.5-43.2-19.2-44.6-42.7c-1.5-24,15.1-44.7,38.8-48.6C156.2-240.1,158.6-240.1,161-240.3z"/>
	</g>
</g>
<g>
	<rect x="77.9" y="103.7" class="st2" width="25.9" height="16"/>
	<rect x="240.3" y="106.7" class="st2" width="25.5" height="14.3"/>
	<rect x="126.6" y="101.3" class="st2" width="86.8" height="24.2"/>
	<g>
		<path class="st0" d="M231.5,61.8c-0.2,34-27.7,61.4-61.4,61.2c-34.1-0.1-61.2-28-60.9-62.8c0.3-32.5,28.3-60.1,60.9-59.9
			C204.3,0.5,231.7,28,231.5,61.8z M114.9,61.6c0,30.5,25,55.7,55.3,55.7c30.5,0,55.5-25.2,55.6-55.9c0-30.3-25.2-55.6-55.5-55.6
			C140,6,114.9,31.1,114.9,61.6z"/>
		<path class="st0" d="M83.5,26.9c2.1,0,3.7,0,5.7,0c0-6.6-0.2-13,0.1-19.4c0.1-2.5-1.7-6.9,2.9-6.8c4.4,0.1,2.6,4.5,2.7,7
			c0.2,6.3,0.1,12.6,0.1,19.1c2,0,3.6,0,5.7,0c0-6.9-0.1-13.7,0-20.5c0-2.4-1-5.9,2.9-5.8c3.6,0,2.7,3.4,2.7,5.7
			c0.1,10.1,0,20.2,0,30.3c0,6.9-2.8,12-9.3,14.6c-2.2,0.8-2.1,2.3-2.1,4c0,20.6,0,41.1,0,61.7c0,2.3,1.1,5.9-2.8,6
			c-4,0.1-2.9-3.5-2.9-5.9c-0.1-20.4-0.1-40.9,0-61.3c0-2.4-0.4-3.8-3-4.9c-5.5-2.3-8.4-6.9-8.5-12.9c-0.1-11.1,0-22.1,0-33.2
			c0-2.1,0.3-4.1,3-4c2.6,0.1,2.8,2.2,2.8,4.2C83.4,12,83.5,19.3,83.5,26.9z M83.7,33.1c-0.5,4.9-0.6,9.3,4,11.9
			c3.2,1.9,6.6,1.7,9.5-0.5c3.8-2.9,3.7-7,3-11.4C94.7,33.1,89.3,33.1,83.7,33.1z"/>
		<path class="st0" d="M251.5,70.2c-2.4,0-4.3,0-6.3,0c-4.7,0-5.1-0.5-5.1-5.3c0-10,0-19.9,0-29.9c0-6.7-0.2-13.4,0.1-20.1
			c0.3-7.9,5.3-13.6,12.3-14.4c3.6-0.4,4.8,0.5,4.8,4c0,38.1,0,76.1,0,114.2c0,2.1-0.3,4.1-2.9,4.1c-2.6-0.1-2.9-2.1-2.9-4.2
			c0-14.6,0-29.2,0-43.8C251.5,73.5,251.5,72.2,251.5,70.2z M251.2,64.3c0-19.1,0-38.1,0-57.5c-4.2,2.1-5.3,5.2-5.4,9.1
			c0,15.2,0,30.4,0,45.6c0,0.9,0.2,1.8,0.3,2.8C248,64.3,249.5,64.3,251.2,64.3z"/>
		<path class="st4" d="M114.9,61.6c0-30.5,25-55.6,55.4-55.7c30.3,0,55.5,25.2,55.5,55.6c0,30.7-25.1,55.9-55.6,55.9
			C140,117.4,114.9,92.1,114.9,61.6z M170.6,15.7c-2.4,0.2-4.9,0.2-7.3,0.6c-23.7,3.8-40.2,24.6-38.8,48.6
			c1.4,23.5,20.7,42.2,44.6,42.7c18.6,0.4,32.8-7.9,41.5-24.2c8.6-16.2,7.4-32.6-2.7-48.1c-1.2-1.8-2.7-3.6-5-2
			c-2.4,1.7-0.9,3.6,0.3,5.3c6.4,9.3,8.4,19.5,6.5,30.6c-3.6,21-24.1,35.5-45.5,32.2c-21.2-3.2-36.7-23.7-33.8-44.4
			c4.3-30.7,37.2-45.5,63.1-28.3c1.7,1.1,3.6,2.3,5.1,0.2c1.6-2.3-0.1-3.8-2-5C188.8,18.5,180.1,15.7,170.6,15.7z"/>
		<path class="st5" d="M83.7,33.1c5.7,0,11.1,0,16.6,0c0.7,4.4,0.8,8.4-3,11.4c-3,2.3-6.3,2.4-9.5,0.5C83.1,42.4,83.2,38,83.7,33.1z
			"/>
		<path class="st5" d="M251.2,64.3c-1.7,0-3.2,0-5,0c-0.1-1-0.3-1.9-0.3-2.8c0-15.2,0-30.4,0-45.6c0-3.9,1.2-7.1,5.4-9.1
			C251.2,26.2,251.2,45.1,251.2,64.3z"/>
		<path class="st0" d="M170.6,15.7c9.5,0.1,18.2,2.9,26,8.3c1.8,1.3,3.5,2.8,2,5c-1.5,2.1-3.4,0.9-5.1-0.2
			c-25.9-17.2-58.8-2.4-63.1,28.3c-2.9,20.7,12.7,41.2,33.8,44.4c21.4,3.3,41.9-11.3,45.5-32.2c1.9-11.1-0.1-21.3-6.5-30.6
			c-1.2-1.8-2.7-3.7-0.3-5.3c2.3-1.6,3.8,0.1,5,2c10.1,15.5,11.4,31.8,2.7,48.1c-8.7,16.3-22.9,24.6-41.5,24.2
			c-23.9-0.5-43.2-19.2-44.6-42.7c-1.5-24,15.1-44.7,38.8-48.6C165.7,15.8,168.1,15.8,170.6,15.7z"/>
	</g>
</g>
</svg>
